<mxfile host="app.diagrams.net" modified="2022-02-06T09:26:50.628Z" agent="5.0 (Macintosh; Intel Mac OS X 10_15_7) AppleWebKit/605.1.15 (KHTML, like Gecko) Version/15.2 Safari/605.1.15" etag="p266tR7NlxQ1c7Sxn3Cs" version="16.5.3" type="github">
  <diagram id="GkwxvoKI0v0egCr2lqlU" name="Page-1">
    <mxGraphModel dx="946" dy="645" grid="1" gridSize="10" guides="1" tooltips="1" connect="1" arrows="1" fold="1" page="1" pageScale="1" pageWidth="850" pageHeight="1100" math="0" shadow="0">
      <root>
        <mxCell id="0" />
        <mxCell id="1" parent="0" />
        <mxCell id="RtcgU3C-zt8aPHX_ZTjs-4" style="rounded=0;orthogonalLoop=1;jettySize=auto;html=1;exitX=1;exitY=0.5;exitDx=0;exitDy=0;entryX=0;entryY=0.5;entryDx=0;entryDy=0;endArrow=none;endFill=0;fontColor=#000000;strokeColor=#000000;fontSize=14;fontFamily=Georgia;" parent="1" source="RtcgU3C-zt8aPHX_ZTjs-1" target="RtcgU3C-zt8aPHX_ZTjs-2" edge="1">
          <mxGeometry relative="1" as="geometry" />
        </mxCell>
        <mxCell id="4VMU7p_WYgPRxcq0oTT4-2" style="rounded=0;orthogonalLoop=1;jettySize=auto;html=1;exitX=1;exitY=0.5;exitDx=0;exitDy=0;entryX=0;entryY=0.5;entryDx=0;entryDy=0;endArrow=none;endFill=0;fontFamily=Georgia;" parent="1" source="RtcgU3C-zt8aPHX_ZTjs-1" target="4VMU7p_WYgPRxcq0oTT4-1" edge="1">
          <mxGeometry relative="1" as="geometry" />
        </mxCell>
        <mxCell id="RtcgU3C-zt8aPHX_ZTjs-1" value="s2" style="ellipse;whiteSpace=wrap;html=1;aspect=fixed;fontColor=#000000;strokeColor=#000000;fontSize=14;fontFamily=Georgia;" parent="1" vertex="1">
          <mxGeometry x="669" y="305" width="30" height="30" as="geometry" />
        </mxCell>
        <mxCell id="RtcgU3C-zt8aPHX_ZTjs-10" style="edgeStyle=none;rounded=0;orthogonalLoop=1;jettySize=auto;html=1;exitX=1;exitY=0.5;exitDx=0;exitDy=0;entryX=0;entryY=0.5;entryDx=0;entryDy=0;endArrow=none;endFill=0;fontColor=#000000;fontSize=14;fontFamily=Georgia;" parent="1" source="RtcgU3C-zt8aPHX_ZTjs-2" target="RtcgU3C-zt8aPHX_ZTjs-6" edge="1">
          <mxGeometry relative="1" as="geometry" />
        </mxCell>
        <mxCell id="RtcgU3C-zt8aPHX_ZTjs-11" style="edgeStyle=none;rounded=0;orthogonalLoop=1;jettySize=auto;html=1;exitX=1;exitY=0.5;exitDx=0;exitDy=0;entryX=0;entryY=0.5;entryDx=0;entryDy=0;endArrow=none;endFill=0;strokeColor=#000000;fontColor=#000000;fontSize=14;fontFamily=Georgia;" parent="1" source="RtcgU3C-zt8aPHX_ZTjs-2" target="RtcgU3C-zt8aPHX_ZTjs-7" edge="1">
          <mxGeometry relative="1" as="geometry" />
        </mxCell>
        <mxCell id="RtcgU3C-zt8aPHX_ZTjs-2" value="s3" style="ellipse;whiteSpace=wrap;html=1;aspect=fixed;fontColor=#000000;strokeColor=#000000;fontSize=14;fontFamily=Georgia;" parent="1" vertex="1">
          <mxGeometry x="770" y="265" width="30" height="30" as="geometry" />
        </mxCell>
        <mxCell id="RtcgU3C-zt8aPHX_ZTjs-13" style="edgeStyle=none;rounded=0;orthogonalLoop=1;jettySize=auto;html=1;exitX=1;exitY=0.5;exitDx=0;exitDy=0;entryX=0;entryY=0.5;entryDx=0;entryDy=0;endArrow=none;endFill=0;fontColor=#000000;fontSize=14;fontFamily=Georgia;" parent="1" source="4VMU7p_WYgPRxcq0oTT4-1" target="RtcgU3C-zt8aPHX_ZTjs-9" edge="1">
          <mxGeometry relative="1" as="geometry">
            <mxPoint x="840" y="355" as="sourcePoint" />
          </mxGeometry>
        </mxCell>
        <mxCell id="RtcgU3C-zt8aPHX_ZTjs-48" style="edgeStyle=none;rounded=0;orthogonalLoop=1;jettySize=auto;html=1;exitX=1;exitY=0.5;exitDx=0;exitDy=0;entryX=0;entryY=0.5;entryDx=0;entryDy=0;fontSize=14;endArrow=none;endFill=0;fontColor=#000000;fontFamily=Georgia;" parent="1" source="RtcgU3C-zt8aPHX_ZTjs-6" target="RtcgU3C-zt8aPHX_ZTjs-28" edge="1">
          <mxGeometry relative="1" as="geometry">
            <mxPoint x="1150" y="290" as="targetPoint" />
          </mxGeometry>
        </mxCell>
        <mxCell id="RtcgU3C-zt8aPHX_ZTjs-6" value="s5" style="ellipse;whiteSpace=wrap;html=1;aspect=fixed;fontColor=#000000;fontSize=14;fontFamily=Georgia;" parent="1" vertex="1">
          <mxGeometry x="870" y="242" width="30" height="30" as="geometry" />
        </mxCell>
        <mxCell id="RtcgU3C-zt8aPHX_ZTjs-29" style="edgeStyle=none;rounded=0;orthogonalLoop=1;jettySize=auto;html=1;exitX=1;exitY=0.5;exitDx=0;exitDy=0;entryX=0;entryY=0.5;entryDx=0;entryDy=0;fontSize=14;endArrow=none;endFill=0;fontColor=#000000;fontFamily=Georgia;" parent="1" source="RtcgU3C-zt8aPHX_ZTjs-7" target="RtcgU3C-zt8aPHX_ZTjs-28" edge="1">
          <mxGeometry relative="1" as="geometry" />
        </mxCell>
        <mxCell id="RtcgU3C-zt8aPHX_ZTjs-7" value="s6" style="ellipse;whiteSpace=wrap;html=1;aspect=fixed;fontColor=#000000;fontSize=14;fontFamily=Georgia;" parent="1" vertex="1">
          <mxGeometry x="870" y="305" width="30" height="30" as="geometry" />
        </mxCell>
        <mxCell id="RtcgU3C-zt8aPHX_ZTjs-45" style="edgeStyle=none;rounded=0;orthogonalLoop=1;jettySize=auto;html=1;exitX=1;exitY=0.5;exitDx=0;exitDy=0;entryX=0;entryY=0.5;entryDx=0;entryDy=0;fontSize=14;endArrow=none;endFill=0;fontColor=#000000;fontFamily=Georgia;" parent="1" source="RtcgU3C-zt8aPHX_ZTjs-9" target="RtcgU3C-zt8aPHX_ZTjs-28" edge="1">
          <mxGeometry relative="1" as="geometry" />
        </mxCell>
        <mxCell id="RtcgU3C-zt8aPHX_ZTjs-9" value="s7" style="ellipse;whiteSpace=wrap;html=1;aspect=fixed;fontColor=#000000;fontSize=14;fontFamily=Georgia;" parent="1" vertex="1">
          <mxGeometry x="870" y="368" width="30" height="30" as="geometry" />
        </mxCell>
        <mxCell id="RtcgU3C-zt8aPHX_ZTjs-14" value="&lt;font style=&quot;font-size: 14px&quot;&gt;&lt;span style=&quot;color: rgb(128, 128, 128);&quot;&gt;e2-3&lt;/span&gt;&lt;span style=&quot;&quot;&gt;:&lt;/span&gt;see&lt;/font&gt;" style="text;html=1;align=center;verticalAlign=middle;resizable=0;points=[];autosize=1;strokeColor=none;fillColor=none;fontColor=#000000;fontSize=14;fontFamily=Georgia;" parent="1" vertex="1">
          <mxGeometry x="687" y="275" width="70" height="20" as="geometry" />
        </mxCell>
        <mxCell id="RtcgU3C-zt8aPHX_ZTjs-16" value="&lt;span style=&quot;color: rgb(128, 128, 128);&quot;&gt;e3-5&lt;/span&gt;&lt;span style=&quot;&quot;&gt;:&lt;/span&gt;these" style="text;html=1;align=center;verticalAlign=middle;resizable=0;points=[];autosize=1;strokeColor=none;fillColor=none;fontSize=14;fontColor=#000000;fontFamily=Georgia;" parent="1" vertex="1">
          <mxGeometry x="780" y="240" width="90" height="20" as="geometry" />
        </mxCell>
        <mxCell id="RtcgU3C-zt8aPHX_ZTjs-17" value="&lt;span style=&quot;color: rgb(128, 128, 128);&quot;&gt;e3-6&lt;/span&gt;&lt;span style=&quot;&quot;&gt;:&lt;/span&gt;the" style="text;html=1;align=center;verticalAlign=middle;resizable=0;points=[];autosize=1;strokeColor=none;fillColor=none;fontSize=14;fontColor=#000000;fontFamily=Georgia;" parent="1" vertex="1">
          <mxGeometry x="777" y="295" width="70" height="20" as="geometry" />
        </mxCell>
        <mxCell id="RtcgU3C-zt8aPHX_ZTjs-21" style="edgeStyle=none;rounded=0;orthogonalLoop=1;jettySize=auto;html=1;exitX=1;exitY=0.5;exitDx=0;exitDy=0;entryX=0;entryY=0.5;entryDx=0;entryDy=0;fontSize=14;endArrow=none;endFill=0;fontColor=#000000;strokeColor=#000000;fontFamily=Georgia;" parent="1" source="RtcgU3C-zt8aPHX_ZTjs-20" target="RtcgU3C-zt8aPHX_ZTjs-1" edge="1">
          <mxGeometry relative="1" as="geometry" />
        </mxCell>
        <mxCell id="54BcYv2EsDL3iLWHWI-8-22" style="edgeStyle=orthogonalEdgeStyle;rounded=0;orthogonalLoop=1;jettySize=auto;html=1;exitX=0;exitY=0.5;exitDx=0;exitDy=0;fontFamily=Georgia;fontSize=14;fontColor=#808080;strokeColor=#000000;endArrow=none;endFill=0;" parent="1" source="RtcgU3C-zt8aPHX_ZTjs-20" edge="1">
          <mxGeometry relative="1" as="geometry">
            <mxPoint x="519" y="320" as="targetPoint" />
          </mxGeometry>
        </mxCell>
        <mxCell id="RtcgU3C-zt8aPHX_ZTjs-20" value="&lt;font style=&quot;font-size: 14px;&quot;&gt;s1&lt;/font&gt;" style="ellipse;whiteSpace=wrap;html=1;aspect=fixed;fontColor=#000000;strokeColor=#000000;fontSize=14;fontFamily=Georgia;" parent="1" vertex="1">
          <mxGeometry x="573" y="305" width="30" height="30" as="geometry" />
        </mxCell>
        <mxCell id="RtcgU3C-zt8aPHX_ZTjs-22" value="&lt;font style=&quot;font-size: 14px&quot;&gt;&lt;span style=&quot;&quot;&gt;&lt;font color=&quot;#808080&quot;&gt;e1-2&lt;/font&gt;:&lt;/span&gt;&amp;lt;s&amp;gt;&lt;/font&gt;" style="text;html=1;align=center;verticalAlign=middle;resizable=0;points=[];autosize=1;strokeColor=none;fillColor=none;fontColor=#000000;fontSize=14;fontFamily=Georgia;" parent="1" vertex="1">
          <mxGeometry x="596" y="300" width="80" height="20" as="geometry" />
        </mxCell>
        <mxCell id="RtcgU3C-zt8aPHX_ZTjs-52" style="edgeStyle=none;rounded=0;orthogonalLoop=1;jettySize=auto;html=1;exitX=1;exitY=0.5;exitDx=0;exitDy=0;fontSize=14;endArrow=none;endFill=0;entryX=0;entryY=0.5;entryDx=0;entryDy=0;fontColor=#000000;fontFamily=Georgia;" parent="1" source="RtcgU3C-zt8aPHX_ZTjs-28" target="RtcgU3C-zt8aPHX_ZTjs-50" edge="1">
          <mxGeometry relative="1" as="geometry">
            <mxPoint x="1250" y="340" as="targetPoint" />
          </mxGeometry>
        </mxCell>
        <mxCell id="RtcgU3C-zt8aPHX_ZTjs-28" value="s8" style="ellipse;whiteSpace=wrap;html=1;aspect=fixed;fontColor=#000000;fontSize=14;fontFamily=Georgia;" parent="1" vertex="1">
          <mxGeometry x="980" y="305" width="30" height="30" as="geometry" />
        </mxCell>
        <mxCell id="RtcgU3C-zt8aPHX_ZTjs-38" value="&lt;span style=&quot;color: rgb(128, 128, 128);&quot;&gt;e7-8&lt;/span&gt;&lt;span style=&quot;&quot;&gt;:&lt;/span&gt;beds" style="text;html=1;align=center;verticalAlign=middle;resizable=0;points=[];autosize=1;strokeColor=none;fillColor=none;fontSize=14;fontColor=#000000;fontFamily=Georgia;" parent="1" vertex="1">
          <mxGeometry x="921" y="355" width="80" height="20" as="geometry" />
        </mxCell>
        <mxCell id="RtcgU3C-zt8aPHX_ZTjs-39" value="&lt;span style=&quot;color: rgb(128, 128, 128);&quot;&gt;e5-8&lt;/span&gt;&lt;span style=&quot;&quot;&gt;:b&lt;/span&gt;ed" style="text;html=1;align=center;verticalAlign=middle;resizable=0;points=[];autosize=1;strokeColor=none;fillColor=none;fontSize=14;fontColor=#000000;fontFamily=Georgia;" parent="1" vertex="1">
          <mxGeometry x="920" y="265" width="80" height="20" as="geometry" />
        </mxCell>
        <mxCell id="RtcgU3C-zt8aPHX_ZTjs-46" value="&lt;span style=&quot;color: rgb(128, 128, 128);&quot;&gt;e6-8&lt;/span&gt;&lt;span style=&quot;&quot;&gt;:b&lt;/span&gt;ed" style="text;html=1;align=center;verticalAlign=middle;resizable=0;points=[];autosize=1;strokeColor=none;fillColor=none;fontSize=14;fontColor=#000000;fontFamily=Georgia;" parent="1" vertex="1">
          <mxGeometry x="893" y="302" width="80" height="20" as="geometry" />
        </mxCell>
        <mxCell id="54BcYv2EsDL3iLWHWI-8-24" style="edgeStyle=orthogonalEdgeStyle;rounded=0;orthogonalLoop=1;jettySize=auto;html=1;exitX=1;exitY=0.5;exitDx=0;exitDy=0;fontFamily=Georgia;fontSize=14;fontColor=#808080;endArrow=none;endFill=0;strokeColor=#000000;entryX=0;entryY=0.5;entryDx=0;entryDy=0;" parent="1" source="RtcgU3C-zt8aPHX_ZTjs-50" target="54BcYv2EsDL3iLWHWI-8-11" edge="1">
          <mxGeometry relative="1" as="geometry">
            <mxPoint x="1150" y="350" as="targetPoint" />
          </mxGeometry>
        </mxCell>
        <mxCell id="RtcgU3C-zt8aPHX_ZTjs-50" value="s9" style="ellipse;whiteSpace=wrap;html=1;aspect=fixed;fontColor=#000000;fontSize=14;fontFamily=Georgia;" parent="1" vertex="1">
          <mxGeometry x="1081" y="305" width="30" height="30" as="geometry" />
        </mxCell>
        <mxCell id="RtcgU3C-zt8aPHX_ZTjs-54" value="&lt;span style=&quot;color: rgb(128, 128, 128);&quot;&gt;e8-9&lt;/span&gt;&lt;span style=&quot;&quot;&gt;:&lt;/span&gt;&amp;lt;/s&amp;gt;" style="text;html=1;align=center;verticalAlign=middle;resizable=0;points=[];autosize=1;strokeColor=none;fillColor=none;fontSize=14;fontColor=#000000;fontFamily=Georgia;" parent="1" vertex="1">
          <mxGeometry x="1005" y="300" width="80" height="20" as="geometry" />
        </mxCell>
        <mxCell id="RtcgU3C-zt8aPHX_ZTjs-105" value="s7" style="ellipse;whiteSpace=wrap;html=1;aspect=fixed;fontSize=14;fontColor=#000000;fontFamily=Georgia;" parent="1" vertex="1">
          <mxGeometry x="1532" y="305" width="30" height="30" as="geometry" />
        </mxCell>
        <mxCell id="RtcgU3C-zt8aPHX_ZTjs-119" value="&lt;font color=&quot;#000000&quot; style=&quot;font-size: 20px&quot;&gt;&lt;font style=&quot;font-size: 20px&quot;&gt;Utterance 1&amp;nbsp;(Evaluated)&lt;br&gt;Computing Lattice Representation with LatticeRNN&lt;/font&gt;&lt;br&gt;&lt;/font&gt;" style="text;html=1;align=center;verticalAlign=middle;resizable=0;points=[];autosize=1;strokeColor=none;fillColor=none;fontSize=30;fontFamily=Georgia;fontColor=#FF0000;" parent="1" vertex="1">
          <mxGeometry x="611" y="140" width="470" height="80" as="geometry" />
        </mxCell>
        <mxCell id="RtcgU3C-zt8aPHX_ZTjs-120" value="&lt;font color=&quot;#000000&quot; style=&quot;font-size: 20px&quot;&gt;&lt;font style=&quot;font-size: 20px&quot;&gt;Utterance 2&amp;nbsp;(Evaluating)&lt;br&gt;Lattice Rescoring&lt;/font&gt;&lt;br&gt;&lt;/font&gt;" style="text;html=1;align=center;verticalAlign=middle;resizable=0;points=[];autosize=1;strokeColor=none;fillColor=none;fontSize=30;fontFamily=Georgia;fontColor=#FF0000;" parent="1" vertex="1">
          <mxGeometry x="1244" y="140" width="230" height="80" as="geometry" />
        </mxCell>
        <mxCell id="4VMU7p_WYgPRxcq0oTT4-12" style="edgeStyle=none;rounded=0;orthogonalLoop=1;jettySize=auto;html=1;exitX=1;exitY=0.5;exitDx=0;exitDy=0;entryX=0;entryY=0.5;entryDx=0;entryDy=0;endArrow=none;endFill=0;fontFamily=Georgia;" parent="1" source="PLGYQZCd30LQGUTYlzt7-8" target="RtcgU3C-zt8aPHX_ZTjs-105" edge="1">
          <mxGeometry relative="1" as="geometry" />
        </mxCell>
        <mxCell id="PLGYQZCd30LQGUTYlzt7-8" value="s6" style="ellipse;whiteSpace=wrap;html=1;aspect=fixed;fontSize=14;fontColor=#000000;fontFamily=Georgia;" parent="1" vertex="1">
          <mxGeometry x="1457" y="305" width="30" height="30" as="geometry" />
        </mxCell>
        <mxCell id="PLGYQZCd30LQGUTYlzt7-9" style="edgeStyle=none;rounded=0;orthogonalLoop=1;jettySize=auto;html=1;exitX=1;exitY=0.5;exitDx=0;exitDy=0;entryX=0;entryY=0.5;entryDx=0;entryDy=0;fontSize=14;endArrow=none;endFill=0;fontColor=#000000;fontFamily=Georgia;" parent="1" source="PLGYQZCd30LQGUTYlzt7-10" target="PLGYQZCd30LQGUTYlzt7-8" edge="1">
          <mxGeometry relative="1" as="geometry" />
        </mxCell>
        <mxCell id="PLGYQZCd30LQGUTYlzt7-10" value="s5" style="ellipse;whiteSpace=wrap;html=1;aspect=fixed;fontSize=14;fontColor=#000000;fontFamily=Georgia;" parent="1" vertex="1">
          <mxGeometry x="1387" y="305" width="30" height="30" as="geometry" />
        </mxCell>
        <mxCell id="PLGYQZCd30LQGUTYlzt7-11" value="&lt;font&gt;a&lt;/font&gt;" style="text;html=1;align=center;verticalAlign=middle;resizable=0;points=[];autosize=1;strokeColor=none;fillColor=none;fontSize=14;fontColor=#000000;fontFamily=Georgia;" parent="1" vertex="1">
          <mxGeometry x="1362" y="282" width="20" height="20" as="geometry" />
        </mxCell>
        <mxCell id="PLGYQZCd30LQGUTYlzt7-12" style="edgeStyle=none;rounded=0;orthogonalLoop=1;jettySize=auto;html=1;exitX=1;exitY=0.5;exitDx=0;exitDy=0;entryX=0;entryY=0.5;entryDx=0;entryDy=0;fontFamily=Georgia;fontSize=14;endArrow=none;endFill=0;fontColor=#000000;" parent="1" source="PLGYQZCd30LQGUTYlzt7-13" target="PLGYQZCd30LQGUTYlzt7-10" edge="1">
          <mxGeometry relative="1" as="geometry" />
        </mxCell>
        <mxCell id="PLGYQZCd30LQGUTYlzt7-13" value="s4" style="ellipse;whiteSpace=wrap;html=1;aspect=fixed;fontSize=14;fontColor=#000000;fontFamily=Georgia;" parent="1" vertex="1">
          <mxGeometry x="1311" y="345" width="30" height="30" as="geometry" />
        </mxCell>
        <mxCell id="PLGYQZCd30LQGUTYlzt7-14" value="&lt;font&gt;have&lt;/font&gt;" style="text;html=1;align=center;verticalAlign=middle;resizable=0;points=[];autosize=1;strokeColor=none;fillColor=none;fontSize=14;fontColor=#000000;fontFamily=Georgia;" parent="1" vertex="1">
          <mxGeometry x="1255" y="275" width="50" height="20" as="geometry" />
        </mxCell>
        <mxCell id="54BcYv2EsDL3iLWHWI-8-1" style="edgeStyle=none;rounded=0;orthogonalLoop=1;jettySize=auto;html=1;exitX=1;exitY=0.5;exitDx=0;exitDy=0;entryX=0;entryY=0.5;entryDx=0;entryDy=0;endArrow=none;endFill=0;fontSize=14;fontColor=#000000;fontFamily=Georgia;" parent="1" source="54BcYv2EsDL3iLWHWI-8-6" target="PLGYQZCd30LQGUTYlzt7-10" edge="1">
          <mxGeometry relative="1" as="geometry" />
        </mxCell>
        <mxCell id="54BcYv2EsDL3iLWHWI-8-6" value="s3" style="ellipse;whiteSpace=wrap;html=1;aspect=fixed;fontSize=14;fontColor=#000000;fontFamily=Georgia;" parent="1" vertex="1">
          <mxGeometry x="1311" y="265" width="30" height="30" as="geometry" />
        </mxCell>
        <mxCell id="54BcYv2EsDL3iLWHWI-8-7" style="edgeStyle=none;rounded=0;orthogonalLoop=1;jettySize=auto;html=1;exitX=1;exitY=0.5;exitDx=0;exitDy=0;entryX=0;entryY=0.5;entryDx=0;entryDy=0;fontSize=14;endArrow=none;endFill=0;fontColor=#000000;fontFamily=Georgia;" parent="1" source="54BcYv2EsDL3iLWHWI-8-8" target="54BcYv2EsDL3iLWHWI-8-6" edge="1">
          <mxGeometry relative="1" as="geometry" />
        </mxCell>
        <mxCell id="54BcYv2EsDL3iLWHWI-8-8" value="s2" style="ellipse;whiteSpace=wrap;html=1;aspect=fixed;fontSize=14;fontColor=#000000;fontFamily=Georgia;" parent="1" vertex="1">
          <mxGeometry x="1230" y="305" width="30" height="30" as="geometry" />
        </mxCell>
        <mxCell id="54BcYv2EsDL3iLWHWI-8-10" style="edgeStyle=none;rounded=0;orthogonalLoop=1;jettySize=auto;html=1;exitX=1;exitY=0.5;exitDx=0;exitDy=0;entryX=0;entryY=0.5;entryDx=0;entryDy=0;fontFamily=Georgia;fontSize=14;endArrow=none;endFill=0;fontColor=#000000;" parent="1" source="54BcYv2EsDL3iLWHWI-8-11" target="54BcYv2EsDL3iLWHWI-8-8" edge="1">
          <mxGeometry relative="1" as="geometry" />
        </mxCell>
        <mxCell id="54BcYv2EsDL3iLWHWI-8-11" value="s1" style="ellipse;whiteSpace=wrap;html=1;aspect=fixed;fontSize=14;fontColor=#000000;fontFamily=Georgia;" parent="1" vertex="1">
          <mxGeometry x="1166" y="305" width="30" height="30" as="geometry" />
        </mxCell>
        <mxCell id="54BcYv2EsDL3iLWHWI-8-12" value="&lt;font style=&quot;font-size: 14px&quot;&gt;&amp;lt;s&amp;gt;&lt;/font&gt;" style="text;html=1;align=center;verticalAlign=middle;resizable=0;points=[];autosize=1;strokeColor=none;fillColor=none;fontSize=14;fontColor=#000000;fontFamily=Georgia;" parent="1" vertex="1">
          <mxGeometry x="1193" y="300" width="40" height="20" as="geometry" />
        </mxCell>
        <mxCell id="54BcYv2EsDL3iLWHWI-8-23" value="&lt;span style=&quot;&quot;&gt;h[e0-1]&lt;/span&gt;" style="text;html=1;align=center;verticalAlign=middle;resizable=0;points=[];autosize=1;strokeColor=none;fillColor=none;fontSize=14;fontFamily=Georgia;fontColor=#808080;" parent="1" vertex="1">
          <mxGeometry x="511" y="300" width="70" height="20" as="geometry" />
        </mxCell>
        <mxCell id="54BcYv2EsDL3iLWHWI-8-25" value="&lt;font&gt;h[e0-1]&lt;/font&gt;" style="text;html=1;align=center;verticalAlign=middle;resizable=0;points=[];autosize=1;strokeColor=none;fillColor=none;fontSize=14;fontFamily=Georgia;fontColor=#808080;" parent="1" vertex="1">
          <mxGeometry x="1101" y="300" width="70" height="20" as="geometry" />
        </mxCell>
        <mxCell id="54BcYv2EsDL3iLWHWI-8-29" value="" style="endArrow=none;html=1;rounded=0;fontFamily=Georgia;fontSize=14;fontColor=#808080;strokeColor=#000000;exitX=0;exitY=0.5;exitDx=0;exitDy=0;entryX=1;entryY=0.5;entryDx=0;entryDy=0;" parent="1" source="PLGYQZCd30LQGUTYlzt7-13" target="54BcYv2EsDL3iLWHWI-8-8" edge="1">
          <mxGeometry width="50" height="50" relative="1" as="geometry">
            <mxPoint x="1450" y="365" as="sourcePoint" />
            <mxPoint x="1370" y="420" as="targetPoint" />
          </mxGeometry>
        </mxCell>
        <mxCell id="4VMU7p_WYgPRxcq0oTT4-3" style="edgeStyle=none;rounded=0;orthogonalLoop=1;jettySize=auto;html=1;exitX=1;exitY=0.5;exitDx=0;exitDy=0;entryX=0;entryY=0.5;entryDx=0;entryDy=0;endArrow=none;endFill=0;fontFamily=Georgia;" parent="1" source="4VMU7p_WYgPRxcq0oTT4-1" target="RtcgU3C-zt8aPHX_ZTjs-7" edge="1">
          <mxGeometry relative="1" as="geometry" />
        </mxCell>
        <mxCell id="4VMU7p_WYgPRxcq0oTT4-1" value="s4" style="ellipse;whiteSpace=wrap;html=1;aspect=fixed;fontColor=#000000;strokeColor=#000000;fontSize=14;fontFamily=Georgia;" parent="1" vertex="1">
          <mxGeometry x="770" y="345" width="30" height="30" as="geometry" />
        </mxCell>
        <mxCell id="4VMU7p_WYgPRxcq0oTT4-4" value="&lt;font style=&quot;font-size: 14px&quot;&gt;&lt;span style=&quot;color: rgb(128, 128, 128);&quot;&gt;e3-4&lt;/span&gt;&lt;span style=&quot;&quot;&gt;:&lt;/span&gt;sees&lt;/font&gt;" style="text;html=1;align=center;verticalAlign=middle;resizable=0;points=[];autosize=1;strokeColor=none;fillColor=none;fontColor=#000000;fontSize=14;fontFamily=Georgia;" parent="1" vertex="1">
          <mxGeometry x="683" y="345" width="80" height="20" as="geometry" />
        </mxCell>
        <mxCell id="4VMU7p_WYgPRxcq0oTT4-5" value="&lt;span style=&quot;color: rgb(128, 128, 128);&quot;&gt;e4-6&lt;/span&gt;&lt;span style=&quot;&quot;&gt;:&lt;/span&gt;the" style="text;html=1;align=center;verticalAlign=middle;resizable=0;points=[];autosize=1;strokeColor=none;fillColor=none;fontSize=14;fontColor=#000000;fontFamily=Georgia;" parent="1" vertex="1">
          <mxGeometry x="777" y="322" width="70" height="20" as="geometry" />
        </mxCell>
        <mxCell id="4VMU7p_WYgPRxcq0oTT4-7" value="&lt;span style=&quot;color: rgb(128, 128, 128);&quot;&gt;e4-7&lt;/span&gt;&lt;span style=&quot;&quot;&gt;:&lt;/span&gt;there" style="text;html=1;align=center;verticalAlign=middle;resizable=0;points=[];autosize=1;strokeColor=none;fillColor=none;fontSize=14;fontColor=#000000;fontFamily=Georgia;" parent="1" vertex="1">
          <mxGeometry x="780" y="375" width="90" height="20" as="geometry" />
        </mxCell>
        <mxCell id="4VMU7p_WYgPRxcq0oTT4-9" value="&lt;font&gt;had&lt;/font&gt;" style="text;html=1;align=center;verticalAlign=middle;resizable=0;points=[];autosize=1;strokeColor=none;fillColor=none;fontSize=14;fontColor=#000000;fontFamily=Georgia;" parent="1" vertex="1">
          <mxGeometry x="1262" y="342" width="40" height="20" as="geometry" />
        </mxCell>
        <mxCell id="4VMU7p_WYgPRxcq0oTT4-10" value="&lt;font&gt;a&lt;/font&gt;" style="text;html=1;align=center;verticalAlign=middle;resizable=0;points=[];autosize=1;strokeColor=none;fillColor=none;fontSize=14;fontColor=#000000;fontFamily=Georgia;" parent="1" vertex="1">
          <mxGeometry x="1361" y="335" width="20" height="20" as="geometry" />
        </mxCell>
        <mxCell id="4VMU7p_WYgPRxcq0oTT4-11" value="&lt;font&gt;rest&lt;/font&gt;" style="text;html=1;align=center;verticalAlign=middle;resizable=0;points=[];autosize=1;strokeColor=none;fillColor=none;fontSize=14;fontColor=#000000;fontFamily=Georgia;" parent="1" vertex="1">
          <mxGeometry x="1417" y="300" width="40" height="20" as="geometry" />
        </mxCell>
        <mxCell id="4VMU7p_WYgPRxcq0oTT4-13" value="&lt;font&gt;&amp;lt;/s&amp;gt;&lt;/font&gt;" style="text;html=1;align=center;verticalAlign=middle;resizable=0;points=[];autosize=1;strokeColor=none;fillColor=none;fontSize=14;fontColor=#000000;fontFamily=Georgia;" parent="1" vertex="1">
          <mxGeometry x="1486" y="299" width="50" height="20" as="geometry" />
        </mxCell>
      </root>
    </mxGraphModel>
  </diagram>
</mxfile>
